<svg height="512" viewBox="0 0 49 60" width="512" xmlns="http://www.w3.org/2000/svg"><g id="Page-1" fill="none" fill-rule="evenodd"><g id="032---Learner-Car" fill="#041E37" fill-rule="nonzero"><path id="Shape" d="m11 39h-4c-1.1045695 0-2 .8954305-2 2v2c0 1.1045695.8954305 2 2 2h4c1.1045695 0 2-.8954305 2-2v-2c0-1.1045695-.8954305-2-2-2zm-4 4v-2h4v2z"></path><path id="Shape" d="m32 39h-14c-1.1045695 0-2 .8954305-2 2v2c0 1.1045695.8954305 2 2 2h14c1.1045695 0 2-.8954305 2-2v-2c0-1.1045695-.8954305-2-2-2zm-6 2h2v2h-2zm-2 2h-2v-2h2zm-6-2h2v2h-2zm12 2v-2h2v2z"></path><path id="Shape" d="m37 41v2c0 1.1045695.8954305 2 2 2h4c1.1045695 0 2-.8954305 2-2v-2c0-1.1045695-.8954305-2-2-2h-4c-1.1045695 0-2 .8954305-2 2zm6 2h-4v-2h4z"></path><path id="Shape" d="m2 8v6.448c-1.20404012.7888568-1.94985646 2.1134266-2 3.552v2c0 .5522847.44771525 1 1 1h4c.55228475 0 1-.4477153 1-1v-2c-.05014354-1.4385734-.79595988-2.7631432-2-3.552v-4.73l8 2.4v6.882c.0015352.7551723.2900086 1.4815389.807 2.032-.7950902.6155154-1.3971805 1.445949-1.735 2.393l-2.348 6.575h-2.724c-1.65344336.0082058-2.99179417 1.3465566-3 3 .00365767 1.1077812.61929694 2.1228164 1.6 2.638l-1.725 1.38c-1.18847434.9466494-1.87908475 2.3845923-1.875 3.904v9.078c.00681482 1.8184116 1.23931486 3.4034067 3 3.858v3.142c0 1.6568542 1.34314575 3 3 3h4c1.6568542 0 3-1.3431458 3-3v-3h22v3c0 1.6568542 1.3431458 3 3 3h4c1.6568542 0 3-1.3431458 3-3v-3.142c1.7606851-.4545933 2.9931852-2.0395884 3-3.858v-9.078c.0020305-1.518041-.6887245-2.9540457-1.876-3.9l-1.724-1.384c.9807031-.5151836 1.5963423-1.5302188 1.6-2.638-.0082058-1.6534434-1.3465566-2.9917942-3-3h-2.724l-2.348-6.575c-.3378195-.947051-.9399098-1.7774846-1.735-2.393.5169914-.5504611.8054648-1.2768277.807-2.032v-6.885l8.933-2.677c.6360853-.18839176 1.0728735-.77224022 1.0740273-1.43563647.0011537-.66339626-.4336012-1.24876044-1.0690273-1.43936353l-21.395-6.49c-.3690187-.09563512-.7567413-.09218563-1.124.01l-21.352 6.479c-.63655003.18775245-1.07181126.77435568-1.067 1.438zm2 11h-2v-1c.04438091-.7202538.41192729-1.3818172 1-1.8.58796252.4182813.95547719 1.0798077 1 1.8zm1.306 13.288c.18239634-.1865985.43307757-.2906276.694-.288l2.017-.022-.717 2.022h-1.3c-.55228475 0-1-.4477153-1-1-.00087326-.2694422.10990828-.5272084.306-.712zm-2.306 17.712v-1h14v3h-12c-1.1045695 0-2-.8954305-2-2zm9 7c0 .5522847-.4477153 1-1 1h-4c-.55228475 0-1-.4477153-1-1v-3h6zm7-5v-3h12v3zm25 5c0 .5522847-.4477153 1-1 1h-4c-.5522847 0-1-.4477153-1-1v-3h6zm3-7c0 1.1045695-.8954305 2-2 2h-12v-3h14zm0-9.078.0000139 6.078h-44.00002006l.00000616-6.078c-.0018499-.9116202.41284023-1.7741462 1.126-2.342l2.951-2.361c.17687631-.1414407.39652577-.2186529.623-.219h34.6c.2271603-.0001065.4475878.0771313.625.219l2.951 2.361c.7127656.5679699 1.1267779 1.4306181 1.124 2.342zm-3-8.922c.2694422-.0008733.5272084.1099083.712.306.1865985.1823963.2906276.4330776.288.694 0 .5522847-.4477153 1-1 1h-1.3l-.714-2.0000051zm-4.422-.807c.0071119.1368954.0446924.2704768.11.391.0166443.0233929.0346767.0457664.054.067l.839 2.349h-31.162l3.537-9.9c.3849263-1.2252474 1.507071-2.0695699 2.791-2.1h18.506c1.283929.0304301 2.4060737.8747526 2.791 2.1zm-23.831-11.193h-.747c-.5522847 0-1-.4477153-1-1v-7.521c.93-.66 4.12-2.479 11-2.479s10.08 1.826 11 2.479v7.521c0 .5522847-.4477153 1-1 1zm9.253-18 19.775 6-7.217 2.162c-.717-.617-4.192-3.162-12.558-3.162s-11.841 2.545-12.558 3.159l-7.217-2.159z"></path></g></g></svg>