<svg fill="#E81D4F" id="Capa_1" enable-background="new 0 0 512 512" height="512" viewBox="0 0 512 512" width="512" xmlns="http://www.w3.org/2000/svg"><g><path d="m512 245.235c0-15.93-12.96-28.889-28.89-28.889h-24.498c-10.504 0-19.765 5.419-25.137 13.608l-2.94-10.375c-1.129-3.985-5.273-6.302-9.261-5.171-3.985 1.129-6.3 5.275-5.171 9.261l10.047 35.456h-10.394l-23.223-81.958c-4.611-16.272-19.645-27.637-36.557-27.637-24.242 0-174.232 0-199.955 0-16.912 0-31.945 11.364-36.557 27.637l-23.223 81.958h-10.392l23.996-84.684c5.825-20.555 24.813-34.911 46.178-34.911h199.955c21.364 0 40.353 14.356 46.178 34.911l3.989 14.081c1.129 3.985 5.279 6.303 9.26 5.171 3.985-1.129 6.301-5.275 5.172-9.26l-3.989-14.082c-7.646-26.979-32.568-45.821-60.609-45.821h-199.957c-28.041 0-52.964 18.842-60.609 45.822l-16.889 59.602c-5.372-8.189-14.633-13.607-25.137-13.607h-24.497c-15.93-.001-28.89 12.958-28.89 28.888s12.96 28.889 28.89 28.889h9.414c-8.85 9.022-14.316 21.375-14.316 34.981v92.241c-2.531 2.137-4.142 5.332-4.142 8.896v31.831c0 11.822 8.214 21.761 19.233 24.412v21.545c0 13.217 10.753 23.97 23.971 23.97h60.63c13.218 0 23.971-10.753 23.971-23.97v-20.851h216.697v20.851c0 13.217 10.753 23.97 23.97 23.97h60.631c13.218 0 23.971-10.753 23.971-23.97v-21.849c10.44-3.043 18.091-12.698 18.091-24.108v-31.831c0-3.564-1.611-6.759-4.142-8.896v-92.241c0-13.606-5.465-25.96-14.316-34.981h10.557c15.93 0 28.89-12.959 28.89-28.889zm-68.429 1.152c0-8.293 6.747-15.041 15.041-15.041h24.498c7.659 0 13.89 6.23 13.89 13.889s-6.23 13.889-13.89 13.889h-39.539zm-79.005 106.161v-1.344c0-20.686 16.835-37.465 37.465-37.465h8.406v38.809zm60.872-38.809h9.138c6.287 0 11.402 5.115 11.402 11.403v9.702c0 9.762-7.942 17.705-17.704 17.705h-2.836zm3.939-19.775-5.513 4.774h-21.833c-20.944 0-39.061 12.336-47.467 30.124h-20.621c-.192-4.708-4.081-8.48-8.836-8.48h-138.215c-4.754 0-8.644 3.772-8.836 8.48h-20.622c-8.406-17.788-26.523-30.124-47.468-30.124h-21.832l-5.513-4.774c-5.948-5.151-9.894-12.128-11.297-19.741 1.613-.121 2.645-.099 4.448-.099.112.003 225.488 0 361.116 0 1.273 0 2.53.069 3.768.202-1.419 7.573-5.357 14.511-11.279 19.638zm-110.426 42.066c0 20.225-16.455 36.68-36.681 36.68h-52.543c-20.226 0-36.68-16.455-36.68-36.68v-.647h125.903v.647zm-241.526-22.291h9.138v38.809h-2.836c-9.762 0-17.704-7.942-17.704-17.704v-9.702c-.001-6.288 5.115-11.403 11.402-11.403zm24.137 0h8.404c20.754 0 37.466 16.897 37.466 37.465v1.344h-45.87zm262.073-54.615h-7.772c-1.679-7.088-5.683-13.286-11.16-17.741 3.18-2.756 5.816-6.145 7.688-9.988 6.543 2.309 11.244 8.554 11.244 15.877zm-78.86 0v-11.853c0-7.318 4.696-13.561 11.232-15.873 1.873 3.844 4.511 7.234 7.693 9.99-5.472 4.455-9.474 10.651-11.152 17.735h-7.773zm44.631-34.582c1.376 2.286 3.483 4.084 5.996 5.069-6.335 5.973-16.062 5.977-22.403.004 2.517-.983 4.628-2.783 6.006-5.073 3.69.98 6.71.98 10.401 0zm-5.201 24.552c6.984 0 13.027 4.105 15.843 10.03h-31.686c2.816-5.924 8.859-10.03 15.843-10.03zm13.983-69.264-1.447 19.651c-.438 5.94-9.659 10.799-12.535 10.799s-12.097-4.858-12.534-10.799l-1.465-19.883c-.602-8.183 5.867-15.068 13.999-15.068 8.324-.001 14.595 6.966 13.982 15.3zm-42.941.869 1.465 19.883c.421 5.72 3.24 10.809 7.133 14.86-1.805 0-2.509-.005-3.089.011-17.149.454-30.981 14.539-30.981 31.818v11.853h-27.551v-11.853c0-17.551-14.278-31.83-31.829-31.83h-2.241c3.893-4.051 6.713-9.14 7.134-14.859l1.464-19.884c.416-5.654-.849-11.278-3.546-16.169h85.585c-2.695 4.892-3.96 10.516-3.544 16.17zm-112.652 43.843c3.69.98 6.709.981 10.4 0 1.377 2.288 3.486 4.087 6.001 5.071-6.338 5.973-16.065 5.973-22.402 0 2.515-.985 4.624-2.784 6.001-5.071zm19.199-44.945-1.464 19.883c-.438 5.94-9.659 10.799-12.535 10.799s-12.098-4.859-12.535-10.798l-1.446-19.652c-.612-8.317 5.643-15.3 13.981-15.3 8.161 0 14.599 6.911 13.999 15.068zm-42.191 51.8c5.149 10.569 16.078 17.698 28.192 17.698s23.042-7.128 28.192-17.698c6.54 2.31 11.238 8.554 11.238 15.875v11.853h-78.859v-11.853c-.001-7.321 4.698-13.565 11.237-15.875zm218.5-50.142 22.064 77.869h-21.532v-11.853c0-17.551-14.278-31.83-31.829-31.83h-2.241c3.893-4.051 6.713-9.14 7.134-14.859l1.447-19.651c.423-5.747-.843-11.458-3.545-16.402h6.376c10.237 0 19.335 6.879 22.126 16.726zm-244.206 0c2.791-9.848 11.889-16.726 22.125-16.726h6.377c-2.702 4.944-3.968 10.655-3.545 16.401l1.446 19.652c.421 5.719 3.241 10.809 7.134 14.859-2.13 0-2.356-.004-2.893.007-.121 0-.243.003-.365.009-17.082.539-30.812 14.603-30.812 31.813v11.853h-21.532zm-118.897 63.98c0-7.659 6.23-13.889 13.89-13.889h24.498c8.294 0 15.041 6.748 15.041 15.041v12.737h-39.539c-7.66 0-13.89-6.23-13.89-13.889zm19.847 196.838v-28.472h39.449c4.143 0 7.5-3.358 7.5-7.5s-3.357-7.5-7.5-7.5h-35.308v-89.496c0-13.095 7.233-24.532 17.913-30.528 1.777 8.1 5.574 15.642 11.062 21.914-9.899 3.812-16.941 13.425-16.941 24.651v9.702c0 18.033 14.671 32.704 32.704 32.704h69.671c4.982 0 9.035-4.053 9.035-9.035v-7.309c0-2.491-.175-4.942-.512-7.341h16.72c3.785 24.793 25.253 43.847 51.087 43.847h52.543c25.835 0 47.303-19.054 51.088-43.847h16.72c-.337 2.399-.512 4.85-.512 7.341v7.309c0 4.982 4.053 9.035 9.034 9.035h69.673c18.033 0 32.704-14.671 32.704-32.705v-9.702c0-11.227-7.043-20.839-16.943-24.651 5.356-6.119 9.1-13.448 10.93-21.324 10.125 6.136 16.904 17.26 16.904 29.939v89.496h-362.572c-4.143 0-7.5 3.358-7.5 7.5s3.357 7.5 7.5 7.5h66.303v38.578h-130.647c-5.572 0-10.105-4.533-10.105-10.106zm286.553-28.472v38.578h-130.801v-38.578zm-188.749 74.429c0 4.946-4.024 8.97-8.971 8.97h-60.63c-4.946 0-8.971-4.024-8.971-8.97v-20.851h15.967v11.43c0 4.142 3.357 7.5 7.5 7.5s7.5-3.358 7.5-7.5v-11.43h16.638v11.43c0 4.142 3.357 7.5 7.5 7.5s7.5-3.358 7.5-7.5v-11.43h15.967zm316.298 8.97h-60.631c-4.946 0-8.97-4.024-8.97-8.97v-20.851h15.967v11.43c0 4.142 3.357 7.5 7.5 7.5s7.5-3.358 7.5-7.5v-11.43h16.637v11.43c0 4.142 3.357 7.5 7.5 7.5s7.5-3.358 7.5-7.5v-11.43h15.968v20.851c0 4.946-4.024 8.97-8.971 8.97zm27.062-54.927c0 5.572-4.534 10.105-10.106 10.105h-129.505v-38.578h139.61v28.473z"></path><path d="m244.596 361.546h22.809c4.143 0 7.5-3.358 7.5-7.5s-3.357-7.5-7.5-7.5h-22.809c-4.143 0-7.5 3.358-7.5 7.5s3.357 7.5 7.5 7.5z"></path><path d="m122.052 98.457h46.564l12.365 12.365c1.819 1.821 4.239 2.823 6.813 2.823s4.994-1.002 6.812-2.822l12.366-12.367h46.579c5.312 0 9.634-4.321 9.634-9.633v-79.189c0-5.312-4.321-9.634-9.634-9.634h-131.499c-5.312 0-9.634 4.322-9.634 9.634v14.872c0 4.142 3.357 7.5 7.5 7.5s7.5-3.358 7.5-7.5v-9.506h120.769v68.457h-43.436c-2.571 0-4.989 1.001-6.812 2.822l-10.144 10.144-10.147-10.147c-1.819-1.817-4.237-2.818-6.809-2.818h-43.421v-23.952c0-4.142-3.357-7.5-7.5-7.5s-7.5 3.358-7.5 7.5v29.318c0 5.312 4.321 9.633 9.634 9.633z"></path><path d="m164.487 48.437v15.692c0 4.142 3.357 7.5 7.5 7.5s7.5-3.358 7.5-7.5v-15.084h7.745c-.502 2.395.177 4.989 2.036 6.848 2.93 2.929 7.678 2.929 10.607 0l9.045-9.045c2.905-2.905 2.954-7.653 0-10.606l-9.045-9.045c-2.93-2.929-7.678-2.929-10.607 0-1.86 1.86-2.538 4.453-2.036 6.848h-8.353c-7.936 0-14.392 6.456-14.392 14.392z"></path></g></svg>